<svg width="291" height="70" viewBox="0 0 291 70" fill="none" xmlns="http://www.w3.org/2000/svg">
<g filter="url(#filter0_i)">
<path fill-rule="evenodd" clip-rule="evenodd" d="M37.8 47.736V55.584H0V47.7356L4.75998 47.7355H9.36V47.736H37.8ZM4.46154 33.8424H0V26.084H4.49435H9.36V26.136H33.696V33.84H9.36V33.8424L4.46154 33.8424ZM9.36 13.0371H4.232H0V5.184H36.792V13.032H9.36V13.0371ZM84.6028 17.136V69.552H75.6028V50.904C72.5788 54.36 68.4748 56.088 63.2908 56.088C59.5468 56.088 56.1868 55.272 53.2108 53.64C50.2828 52.008 47.9788 49.704 46.2988 46.728C44.6668 43.752 43.8508 40.296 43.8508 36.36C43.8508 32.472 44.6908 29.04 46.3708 26.064C48.0508 23.088 50.3548 20.784 53.2828 19.152C56.2108 17.52 59.5468 16.704 63.2908 16.704C65.9308 16.704 68.3308 17.16 70.4908 18.072C72.6988 18.984 74.5468 20.352 76.0348 22.176V17.136H84.6028ZM64.2988 48.384C67.6108 48.384 70.3468 47.28 72.5068 45.072C74.6668 42.864 75.7468 39.96 75.7468 36.36C75.7468 32.76 74.6668 29.856 72.5068 27.648C70.3468 25.44 67.6108 24.336 64.2988 24.336C60.9868 24.336 58.2508 25.44 56.0908 27.648C53.9788 29.856 52.9228 32.76 52.9228 36.36C52.9228 39.96 53.9788 42.864 56.0908 45.072C58.2508 47.28 60.9868 48.384 64.2988 48.384ZM133.602 17.136V55.584H125.034V50.688C123.594 52.416 121.794 53.76 119.634 54.72C117.474 55.632 115.146 56.088 112.65 56.088C107.514 56.088 103.458 54.672 100.482 51.84C97.5542 48.96 96.0902 44.712 96.0902 39.096V17.136H105.09V37.872C105.09 41.328 105.858 43.92 107.394 45.648C108.978 47.328 111.21 48.168 114.09 48.168C117.306 48.168 119.85 47.184 121.722 45.216C123.642 43.2 124.602 40.32 124.602 36.576V17.136H133.602ZM160.074 16.704C165.738 16.704 170.058 18.072 173.034 20.808C176.058 23.496 177.57 27.576 177.57 33.048V55.584H169.074V50.904C167.97 52.584 166.386 53.88 164.322 54.792C162.306 55.656 159.858 56.088 156.978 56.088C154.098 56.088 151.578 55.608 149.418 54.648C147.258 53.64 145.578 52.272 144.378 50.544C143.226 48.768 142.65 46.776 142.65 44.568C142.65 41.112 143.922 38.352 146.466 36.288C149.058 34.176 153.114 33.12 158.634 33.12H168.57V32.544C168.57 29.856 167.754 27.792 166.122 26.352C164.538 24.912 162.162 24.192 158.994 24.192C156.834 24.192 154.698 24.528 152.586 25.2C150.522 25.872 148.77 26.808 147.33 28.008L143.802 21.456C145.818 19.92 148.242 18.744 151.074 17.928C153.906 17.112 156.906 16.704 160.074 16.704ZM158.85 49.536C161.106 49.536 163.098 49.032 164.826 48.024C166.602 46.968 167.85 45.48 168.57 43.56V39.096H159.282C154.098 39.096 151.506 40.8 151.506 44.208C151.506 45.84 152.154 47.136 153.45 48.096C154.746 49.056 156.546 49.536 158.85 49.536ZM189.12 2.16H198.12V55.584H189.12V2.16ZM209.933 17.136H218.933V55.584H209.933V17.136ZM214.469 10.8C212.837 10.8 211.469 10.296 210.365 9.288C209.261 8.232 208.709 6.936 208.709 5.4C208.709 3.864 209.261 2.592 210.365 1.584C211.469 0.527997 212.837 0 214.469 0C216.101 0 217.469 0.503998 218.573 1.512C219.677 2.472 220.229 3.696 220.229 5.184C220.229 6.768 219.677 8.112 218.573 9.216C217.517 10.272 216.149 10.8 214.469 10.8ZM242.625 56.088C239.505 56.088 236.457 55.68 233.481 54.864C230.505 54.048 228.129 53.016 226.353 51.768L229.809 44.928C231.537 46.08 233.601 47.016 236.001 47.736C238.449 48.408 240.849 48.744 243.201 48.744C248.577 48.744 251.265 47.328 251.265 44.496C251.265 43.152 250.569 42.216 249.177 41.688C247.833 41.16 245.649 40.656 242.625 40.176C239.457 39.696 236.865 39.144 234.849 38.52C232.881 37.896 231.153 36.816 229.665 35.28C228.225 33.696 227.505 31.512 227.505 28.728C227.505 25.08 229.017 22.176 232.041 20.016C235.113 17.808 239.241 16.704 244.425 16.704C247.065 16.704 249.705 17.016 252.345 17.64C254.985 18.216 257.145 19.008 258.825 20.016L255.369 26.856C252.105 24.936 248.433 23.976 244.353 23.976C241.713 23.976 239.697 24.384 238.305 25.2C236.961 25.968 236.289 27 236.289 28.296C236.289 29.736 237.009 30.768 238.449 31.392C239.937 31.968 242.217 32.52 245.289 33.048C248.361 33.528 250.881 34.08 252.849 34.704C254.817 35.328 256.497 36.384 257.889 37.872C259.329 39.36 260.049 41.472 260.049 44.208C260.049 47.808 258.489 50.688 255.369 52.848C252.249 55.008 248.001 56.088 242.625 56.088ZM290.912 53.496C289.856 54.36 288.56 55.008 287.024 55.44C285.536 55.872 283.952 56.088 282.272 56.088C278.048 56.088 274.784 54.984 272.48 52.776C270.176 50.568 269.024 47.352 269.024 43.128V24.624H262.688V17.424H269.024V8.64H278.024V17.424H288.32V24.624H278.024V42.912C278.024 44.784 278.48 46.224 279.392 47.232C280.304 48.192 281.624 48.672 283.352 48.672C285.368 48.672 287.048 48.144 288.392 47.088L290.912 53.496Z" fill="#E5E5E5"/>
</g>
<defs>
<filter id="filter0_i" x="0" y="0" width="290.912" height="73.552" filterUnits="userSpaceOnUse" color-interpolation-filters="sRGB">
<feFlood flood-opacity="0" result="BackgroundImageFix"/>
<feBlend mode="normal" in="SourceGraphic" in2="BackgroundImageFix" result="shape"/>
<feColorMatrix in="SourceAlpha" type="matrix" values="0 0 0 0 0 0 0 0 0 0 0 0 0 0 0 0 0 0 127 0" result="hardAlpha"/>
<feOffset dy="4"/>
<feGaussianBlur stdDeviation="2"/>
<feComposite in2="hardAlpha" operator="arithmetic" k2="-1" k3="1"/>
<feColorMatrix type="matrix" values="0 0 0 0 0 0 0 0 0 0 0 0 0 0 0 0 0 0 0.25 0"/>
<feBlend mode="normal" in2="shape" result="effect1_innerShadow"/>
</filter>
</defs>
</svg>
